<?xml version="1.0" encoding="utf-8"?>
<svg version="1.1" id="Layer_1" xmlns="http://www.w3.org/2000/svg" xmlns:xlink="http://www.w3.org/1999/xlink" x="0px" y="0px"
	 viewBox="0 0 600 153.93" style="enable-background:new 0 0 600 153.93;" xml:space="preserve">
<style type="text/css">
	.st0{fill:url(#SVGID_1_);}
</style>
<linearGradient id="SVGID_1_" gradientUnits="userSpaceOnUse" x1="15.78" y1="76.965" x2="584.22" y2="76.965">
	<stop  offset="0" style="stop-color:#1152d4"/>
	<stop  offset="1" style="stop-color:#9333ea"/>
</linearGradient>
<g>
	<polygon class="st0" points="81.54,101.78 62.19,42.84 41.95,42.84 69.64,120.91 93.44,120.91 121.13,42.84 101,42.84 	"/>
	<rect x="123.76" y="42.84" class="st0" width="19.02" height="78.06"/>
	<rect x="404.45" y="42.84" class="st0" width="19.02" height="78.06"/>
	<path class="st0" d="M193.77,79.43c-3.15-1.56-7.25-3.19-12.28-4.89c-5.05-1.63-8.75-3.15-11.12-4.56
		c-2.37-1.41-3.56-3.37-3.56-5.89c0-2.29,0.7-4.06,2.11-5.28c1.41-1.22,3.26-1.84,5.56-1.84c2.67,0,4.86,0.73,6.56,2.17
		c1.7,1.45,2.63,3.43,2.78,5.95h20.58c-0.37-7.34-3.19-13.07-8.45-17.18c-5.26-4.11-12.2-6.17-20.8-6.17
		c-8.45,0-15.31,2.06-20.57,6.17c-5.26,4.12-7.89,9.81-7.89,17.07c0,4.89,1.15,8.86,3.45,11.9c2.3,3.04,5.04,5.34,8.23,6.89
		c3.19,1.56,7.3,3.12,12.34,4.67c3.49,1.04,6.17,1.97,8.06,2.78c1.89,0.82,3.48,1.85,4.78,3.12c1.3,1.26,1.95,2.85,1.95,4.78
		c0,2.3-0.82,4.1-2.45,5.39c-1.63,1.3-3.86,1.95-6.67,1.95c-2.74,0-4.96-0.76-6.67-2.28c-1.7-1.51-2.71-3.72-3-6.61h-20.24
		c0.14,5.11,1.57,9.49,4.28,13.12c2.71,3.63,6.32,6.37,10.84,8.22c4.52,1.85,9.63,2.78,15.35,2.78c5.85,0,10.93-1.07,15.23-3.23
		c4.3-2.15,7.58-5.04,9.84-8.67c2.26-3.63,3.39-7.67,3.39-12.12c0-4.67-1.15-8.49-3.45-11.45
		C199.65,83.25,196.92,80.98,193.77,79.43z"/>
	<path class="st0" d="M219.19,81.64c0-11.29,2.71-21.59,8.05-30.61c0.32-0.53,0.64-1.05,0.96-1.57v-6.61h-19.02v78.06h19.02v-7.01
		c-0.33-0.52-0.65-1.05-0.97-1.59C221.9,103.23,219.19,92.91,219.19,81.64z"/>
	<path class="st0" d="M380.22,91.22l-31.8-48.38H329.4v6.34c0.39,0.61,0.76,1.23,1.13,1.86c5.23,9.02,7.88,19.31,7.88,30.58
		c0,11.27-2.68,21.58-7.96,30.66c-0.34,0.59-0.69,1.17-1.05,1.74v6.88h19.02V72.75l31.8,48.15h19.02V42.84h-19.02V91.22z"/>
	<polygon class="st0" points="429.44,120.91 448.46,120.91 448.46,89.33 472.26,89.33 472.26,74.54 448.46,74.54 448.46,58.08 
		480.26,58.08 480.26,42.84 429.44,42.84 	"/>
	<polygon class="st0" points="535.87,42.84 520.85,75.54 505.73,42.84 484.15,42.84 511.18,95.11 511.18,120.91 530.19,120.91 
		530.19,95.11 557.22,42.84 	"/>
	<path class="st0" d="M296.45,72.47c-0.61,0.9-1.4,1.62-2.35,2.16c-1.11,0.61-2.32,0.92-3.65,0.92c-1.33,0-2.55-0.31-3.66-0.92
		c-1.11-0.62-1.99-1.48-2.65-2.59c-0.65-1.11-0.98-2.36-0.98-3.75c0-1.38,0.33-2.63,0.98-3.74c0.11-0.18,0.22-0.36,0.35-0.53
		c-1.52-0.36-3.1-0.53-4.73-0.53c-3.55,0-6.87,0.85-9.86,2.52c-3.03,1.69-5.46,4.07-7.24,7.07c-1.78,3.01-2.69,6.41-2.69,10.12
		c0,3.7,0.9,7.11,2.68,10.13c1.78,3.02,4.22,5.41,7.25,7.1c2.99,1.67,6.31,2.52,9.86,2.52s6.87-0.85,9.86-2.53
		c3.02-1.69,5.43-4.09,7.19-7.11c1.76-3.01,2.65-6.42,2.65-10.1c0-3.69-0.88-7.08-2.61-10.08C296.71,72.9,296.58,72.68,296.45,72.47
		z"/>
	<polygon class="st0" points="33.69,29.61 49.36,29.61 49.36,14.17 15.78,14.17 15.78,139.76 49.36,139.76 49.36,124.2 33.69,124.2 
			"/>
	<polygon class="st0" points="550.64,14.17 550.64,29.61 566.31,29.61 566.31,124.2 550.64,124.2 550.64,139.76 584.22,139.76 
		584.22,14.17 	"/>
	<path class="st0" d="M332.25,81.64c0-6.48-0.95-12.55-2.85-18.19c-1.09-3.23-2.49-6.32-4.2-9.28c-4.7-8.12-11.14-14.45-19.31-19.01
		c-8.16-4.55-17.15-6.83-26.95-6.83c-9.8,0-18.78,2.28-26.95,6.83c-8.17,4.56-14.65,10.9-19.45,19.01
		c-1.78,3.01-3.22,6.15-4.34,9.43c-1.91,5.6-2.86,11.61-2.86,18.03c0,6.43,0.95,12.45,2.86,18.06c1.12,3.3,2.57,6.46,4.34,9.48
		c4.8,8.17,11.28,14.53,19.45,19.08c8.17,4.56,17.15,6.83,26.95,6.83c9.8,0,18.76-2.27,26.88-6.83c8.12-4.55,14.55-10.91,19.3-19.08
		c1.75-3.01,3.17-6.14,4.27-9.42C331.3,94.13,332.25,88.08,332.25,81.64z M298.92,103.61c-5,5.54-11.66,8.31-19.97,8.31
		c-8.42,0-15.13-2.74-20.12-8.24c-5-5.5-7.5-12.84-7.5-22.05c0-9.3,2.5-16.68,7.5-22.13c5-5.45,11.71-8.17,20.12-8.17
		c8.31,0,14.97,2.75,19.97,8.24c5,5.5,7.5,12.85,7.5,22.05C306.41,90.74,303.91,98.07,298.92,103.61z"/>
</g>
</svg> 